<svg width="15" height="18" viewBox="0 0 15 18" fill="none" xmlns="http://www.w3.org/2000/svg">
<path fill-rule="evenodd" clip-rule="evenodd" d="M7.64966 9.04737C9.84869 9.04737 11.6314 7.26471 11.6314 5.06568C11.6314 2.86665 9.84869 1.08398 7.64966 1.08398C5.45063 1.08398 3.66797 2.86665 3.66797 5.06568C3.66797 7.26471 5.45063 9.04737 7.64966 9.04737Z" stroke="#0052C8" stroke-width="1.5" stroke-linecap="round" stroke-linejoin="round"/>
<path fill-rule="evenodd" clip-rule="evenodd" d="M1.334 14.5856C1.33293 14.3057 1.39553 14.0292 1.51706 13.7771C1.89845 13.0143 2.97397 12.61 3.86642 12.4269C4.51005 12.2896 5.16257 12.1978 5.81912 12.1523C7.03468 12.0456 8.25726 12.0456 9.47282 12.1523C10.1293 12.1984 10.7818 12.2901 11.4255 12.4269C12.318 12.61 13.3935 12.9761 13.7749 13.7771C14.0193 14.2911 14.0193 14.8878 13.7749 15.4018C13.3935 16.2027 12.318 16.5688 11.4255 16.7443C10.7827 16.8873 10.1299 16.9816 9.47282 17.0265C8.48346 17.1104 7.48947 17.1257 6.498 17.0723C6.26916 17.0723 6.04796 17.0723 5.81912 17.0265C5.16451 16.9822 4.51425 16.8878 3.87404 16.7443C2.97397 16.5688 1.90608 16.2027 1.51706 15.4018C1.39615 15.1467 1.33361 14.8679 1.334 14.5856Z" stroke="#0052C8" stroke-width="1.5" stroke-linecap="round" stroke-linejoin="round"/>
</svg>
