<svg width="97" height="40" viewBox="0 0 97 40" fill="none" xmlns="http://www.w3.org/2000/svg">
<path d="M10.9981 9.15385C13.5525 9.15385 15.6233 7.10469 15.6233 4.57692C15.6233 2.04916 13.5525 0 10.9981 0C8.44377 0 6.37305 2.04916 6.37305 4.57692C6.37305 7.10469 8.44377 9.15385 10.9981 9.15385Z" fill="#0052C8"/>
<path d="M0 11.9609L7.54008 39.8456L13.4866 33.9609L7.54008 11.9609H0Z" fill="#0052C8"/>
<path d="M30.1993 9.15385C32.7537 9.15385 34.8244 7.10469 34.8244 4.57692C34.8244 2.04916 32.7537 0 30.1993 0C27.645 0 25.5742 2.04916 25.5742 4.57692C25.5742 7.10469 27.645 9.15385 30.1993 9.15385Z" fill="#FFD213"/>
<path d="M16.6738 11.9609L24.2139 39.8456L30.1993 33.9609L24.2139 11.9609H16.6738Z" fill="#FFD213"/>
<path d="M48.1933 14.4609L46.1723 21.9225H44.0346L42.4022 16.4994L40.731 21.9225H38.5933L36.5723 14.4609H38.4767L39.7204 20.2302L41.3917 14.4609H43.4128L45.1229 20.2302L46.3666 14.4609H48.1933Z" fill="#31373F"/>
<path d="M56.1621 18.5778H50.6431C50.682 19.2317 50.8375 19.7317 51.1873 20.0394C51.5371 20.3471 51.9257 20.5009 52.431 20.5009C52.8585 20.5009 53.2472 20.3855 53.5581 20.1932C53.869 19.9624 54.0245 19.6932 54.1411 19.3086H56.1621C56.0455 19.8471 55.8512 20.3086 55.5403 20.6932C55.2294 21.1163 54.8018 21.424 54.2966 21.6547C53.7913 21.8855 53.2083 22.0009 52.5864 22.0009C51.848 22.0009 51.1873 21.8471 50.6043 21.5394C50.0213 21.2317 49.5937 20.7701 49.2828 20.1932C48.9719 19.6163 48.8164 18.924 48.8164 18.1547C48.8164 17.3855 48.9719 16.6932 49.2828 16.1163C49.5937 15.5394 50.0601 15.0778 50.6043 14.7701C51.1873 14.4624 51.848 14.3086 52.5864 14.3086C53.3249 14.3086 53.9856 14.4624 54.5298 14.7701C55.0739 15.0778 55.5014 15.5009 55.8124 16.0394C56.1233 16.5778 56.2787 17.1932 56.2787 17.8855C56.2399 18.1163 56.201 18.3471 56.1621 18.5778ZM53.8302 16.3471C53.4804 16.0394 53.0528 15.8855 52.5476 15.8855C52.0423 15.8855 51.5759 16.0394 51.2261 16.3471C50.8763 16.6547 50.682 17.1163 50.6431 17.7317H54.2966C54.3354 17.1163 54.18 16.6547 53.8302 16.3471Z" fill="#31373F"/>
<path d="M62.4196 15.0771C62.9638 15.5386 63.3135 16.154 63.469 16.9232H61.6812C61.6034 16.5771 61.448 16.2694 61.1759 16.0771C60.9038 15.8463 60.5929 15.7694 60.1654 15.7694C59.8544 15.7694 59.5824 15.8463 59.388 16.0001C59.1937 16.154 59.116 16.3463 59.116 16.6155C59.116 16.8078 59.1937 17.0001 59.3492 17.1155C59.5046 17.2309 59.6601 17.3463 59.8933 17.4232C60.1265 17.5001 60.4374 17.5771 60.8261 17.6925C61.4091 17.8078 61.8755 17.9617 62.2253 18.0771C62.5751 18.1925 62.886 18.4232 63.1581 18.7309C63.4302 19.0386 63.5467 19.4232 63.5467 19.9617C63.5467 20.6155 63.3136 21.1155 62.8083 21.5002C62.303 21.8848 61.6423 22.0771 60.7872 22.0771C59.8156 22.0771 59.0382 21.8463 58.4164 21.4232C57.8334 21.0002 57.4836 20.3463 57.3281 19.5386H59.1549C59.1937 19.9232 59.3492 20.1925 59.6601 20.4232C59.9322 20.6155 60.3208 20.7309 60.7484 20.7309C61.0593 20.7309 61.3314 20.654 61.4868 20.5001C61.6423 20.3463 61.7589 20.154 61.7589 19.8848C61.7589 19.654 61.6812 19.5001 61.5257 19.3463C61.3702 19.1925 61.1759 19.1155 60.9816 19.0386C60.7484 18.9617 60.4374 18.8848 60.0488 18.7694C59.4658 18.654 59.0382 18.5001 58.6884 18.3848C58.3387 18.2694 58.0277 18.0386 57.7945 17.7694C57.5613 17.5002 57.4059 17.0771 57.4059 16.5771C57.4059 15.9232 57.6391 15.3848 58.1443 15.0001C58.6496 14.5771 59.3492 14.3848 60.2042 14.3848C61.137 14.3848 61.8755 14.6155 62.4196 15.0771Z" fill="#31373F"/>
<path d="M71.5526 15.2315C72.0578 15.8084 72.3299 16.5777 72.3299 17.6161V21.9623H70.4255V17.8084C70.4255 17.2315 70.27 16.77 69.9591 16.4238C69.6481 16.0777 69.2206 15.9238 68.6765 15.9238C68.1324 15.9238 67.7048 16.1161 67.355 16.4623C67.0052 16.8084 66.8498 17.3084 66.8498 17.9623V21.9238H64.9453V11.9238H66.8498V15.9238C67.0441 15.4238 67.3939 15.0392 67.8214 14.7315C68.2878 14.4623 68.7931 14.3084 69.4149 14.3084C70.3477 14.3854 71.0473 14.6546 71.5526 15.2315Z" fill="#31373F"/>
<path d="M78.6272 14.8072C79.0936 15.1149 79.4046 15.4995 79.5989 15.9995V14.4611H81.5034V21.9226H79.5989V20.3842C79.4046 20.8842 79.0936 21.3072 78.6272 21.5765C78.1608 21.8842 77.6167 22.038 76.9948 22.038C76.373 22.038 75.79 21.8842 75.2847 21.5765C74.7795 21.2688 74.3908 20.8457 74.0799 20.2303C73.8078 19.6534 73.6523 18.9611 73.6523 18.1919C73.6523 17.4226 73.8078 16.7303 74.0799 16.1534C74.3519 15.5765 74.7795 15.1149 75.2847 14.8072C75.79 14.4995 76.373 14.3457 76.9948 14.3457C77.6167 14.3842 78.1608 14.538 78.6272 14.8072ZM76.1398 16.6149C75.79 16.9995 75.5957 17.538 75.5957 18.1919C75.5957 18.8842 75.79 19.3842 76.1398 19.7688C76.4896 20.1534 76.9948 20.3457 77.5778 20.3457C78.1608 20.3457 78.6272 20.1534 79.0159 19.7688C79.4046 19.3842 79.5989 18.8457 79.5989 18.1919C79.5989 17.538 79.4046 16.9995 79.0159 16.6149C78.6272 16.2303 78.1608 16.038 77.5778 16.038C76.9948 16.038 76.5285 16.2303 76.1398 16.6149Z" fill="#31373F"/>
<path d="M86.2837 14.7688C86.7501 14.4996 87.2554 14.3457 87.8384 14.3457V16.3842H87.2942C85.8951 16.3842 85.1955 17.038 85.1955 18.3457V21.9611H83.291V14.4611H85.1955V15.8842C85.4675 15.4226 85.8173 15.038 86.2837 14.7688Z" fill="#31373F"/>
<path d="M95.961 18.5778H90.442C90.4808 19.2317 90.6363 19.7317 90.9861 20.0394C91.3359 20.3471 91.7245 20.5009 92.2298 20.5009C92.6573 20.5009 93.046 20.3855 93.3569 20.1932C93.6679 19.9624 93.8233 19.6932 93.9399 19.3086H95.961C95.8444 19.8471 95.6501 20.3086 95.3391 20.6932C95.0282 21.1163 94.6007 21.424 94.0954 21.6547C93.5901 21.8855 93.0071 22.0009 92.3853 22.0009C91.6468 22.0009 90.9861 21.8471 90.4031 21.5394C89.8201 21.2317 89.3926 20.7701 89.0816 20.1932C88.7707 19.6163 88.6152 18.924 88.6152 18.1547C88.6152 17.3855 88.7707 16.6932 89.0816 16.1163C89.3926 15.5394 89.859 15.0778 90.4031 14.7701C90.9861 14.4624 91.6468 14.3086 92.3853 14.3086C93.1237 14.3086 93.7845 14.4624 94.3286 14.7701C94.8727 15.0778 95.3003 15.5009 95.6112 16.0394C95.9221 16.5778 96.0776 17.1932 96.0776 17.8855C95.9999 18.1163 95.9999 18.3471 95.961 18.5778ZM93.5901 16.3471C93.2403 16.0394 92.8128 15.8855 92.3075 15.8855C91.8023 15.8855 91.3359 16.0394 90.9861 16.3471C90.6363 16.6547 90.4419 17.1163 90.4031 17.7317H94.0565C94.0954 17.1163 93.9399 16.6547 93.5901 16.3471Z" fill="#31373F"/>
<path d="M37.4291 34.9238V36.9238H35.3691V34.9238H37.4291Z" fill="#31373F"/>
<path d="M43.2972 29.7695C43.7636 30.0772 44.0745 30.4618 44.2688 30.9618V29.4234H46.1733V36.8849H44.2688V35.308C44.0745 35.808 43.7636 36.2311 43.2972 36.5003C42.8308 36.808 42.2866 36.9618 41.6648 36.9618C41.0429 36.9618 40.4599 36.808 39.9546 36.5003C39.4494 36.1926 39.0607 35.7695 38.7498 35.1541C38.4777 34.5772 38.3223 33.8849 38.3223 33.1157C38.3223 32.3465 38.4777 31.6541 38.7498 31.0772C39.0219 30.5003 39.4494 30.0388 39.9546 29.7311C40.4599 29.4234 41.0429 29.2695 41.6648 29.2695C42.2866 29.3465 42.8308 29.5003 43.2972 29.7695ZM40.8097 31.5772C40.4599 31.9618 40.2656 32.5003 40.2656 33.1541C40.2656 33.8465 40.4599 34.3465 40.8097 34.7311C41.1595 35.1157 41.6648 35.308 42.2478 35.308C42.8308 35.308 43.2972 35.1157 43.6858 34.7311C44.0745 34.3465 44.2688 33.808 44.2688 33.1541C44.2688 32.5003 44.0745 31.9618 43.6858 31.5772C43.2972 31.1926 42.8308 31.0003 42.2478 31.0003C41.6648 31.0003 41.1984 31.1926 40.8097 31.5772Z" fill="#31373F"/>
<path d="M52.7419 30.038C53.286 30.4995 53.6358 31.1149 53.7913 31.8842H52.0034C51.9257 31.538 51.7702 31.2303 51.4982 31.038C51.2261 30.8072 50.9152 30.7303 50.4876 30.7303C50.1767 30.7303 49.9046 30.8072 49.7103 30.9611C49.516 31.1149 49.4382 31.3072 49.4382 31.5765C49.4382 31.7688 49.516 31.9611 49.6714 32.0765C49.8269 32.1919 49.9824 32.3072 50.2156 32.3842C50.4488 32.4611 50.7597 32.538 51.1484 32.6534C51.7314 32.7688 52.1978 32.9226 52.5476 33.038C52.8974 33.1534 53.2083 33.3842 53.4804 33.6919C53.7524 33.9995 53.869 34.3842 53.869 34.9226C53.869 35.5765 53.6358 36.0765 53.1306 36.4611C52.6253 36.8457 51.9646 37.038 51.1095 37.038C50.1378 37.038 49.3605 36.8072 48.7386 36.3842C48.1556 35.9611 47.8059 35.3072 47.6504 34.4995H49.4771C49.516 34.8842 49.6714 35.1534 49.9824 35.3842C50.2544 35.5765 50.6431 35.6919 51.0706 35.6919C51.3816 35.6919 51.6536 35.6149 51.8091 35.4611C51.9646 35.3072 52.0812 35.1149 52.0812 34.8457C52.0812 34.6149 52.0034 34.4611 51.848 34.3072C51.6925 34.1534 51.4982 34.0765 51.3038 33.9996C51.0706 33.9226 50.7597 33.8457 50.371 33.7303C49.788 33.6149 49.3605 33.4611 49.0107 33.3457C48.6609 33.2303 48.35 32.9995 48.1168 32.7303C47.8836 32.4611 47.7281 32.038 47.7281 31.538C47.7281 30.8842 47.9613 30.3457 48.4666 29.9611C48.9719 29.538 49.6714 29.3457 50.5265 29.3457C51.4593 29.3457 52.1978 29.5765 52.7419 30.038Z" fill="#31373F"/>
<path d="M55.4238 26.5382C55.657 26.3459 55.929 26.2305 56.2788 26.2305C56.6286 26.2305 56.9007 26.3459 57.1339 26.5382C57.3671 26.7305 57.4448 26.9997 57.4448 27.2689C57.4448 27.5766 57.3282 27.8074 57.1339 27.9997C56.9396 28.192 56.6286 28.3074 56.2788 28.3074C55.929 28.3074 55.657 28.192 55.4238 27.9997C55.1906 27.8074 55.1128 27.5766 55.1128 27.2689C55.074 26.9612 55.1906 26.7305 55.4238 26.5382ZM57.2116 29.4228V36.8843H55.3072V29.4228H57.2116Z" fill="#31373F"/>
<path d="M63.5862 29.7695C64.0526 30.0772 64.3636 30.4618 64.5579 30.9618V29.4234H66.4623V36.8849H64.5579V35.308C64.3636 35.808 64.0526 36.2311 63.5862 36.5003C63.1198 36.808 62.5757 36.9618 61.9538 36.9618C61.332 36.9618 60.749 36.808 60.2437 36.5003C59.7385 36.1926 59.3498 35.7695 59.0389 35.1541C58.7668 34.5772 58.6113 33.8849 58.6113 33.1157C58.6113 32.3465 58.7668 31.6541 59.0389 31.0772C59.3109 30.5003 59.7385 30.0388 60.2437 29.7311C60.749 29.4234 61.332 29.2695 61.9538 29.2695C62.5757 29.3465 63.1198 29.5003 63.5862 29.7695ZM61.0988 31.5772C60.749 31.9618 60.5546 32.5003 60.5546 33.1541C60.5546 33.8465 60.749 34.3465 61.0988 34.7311C61.4486 35.1157 61.9538 35.308 62.5368 35.308C63.1198 35.308 63.5862 35.1157 63.9749 34.7311C64.3636 34.3465 64.5579 33.808 64.5579 33.1541C64.5579 32.5003 64.3636 31.9618 63.9749 31.5772C63.5862 31.1926 63.1198 31.0003 62.5368 31.0003C61.915 31.0003 61.4486 31.1926 61.0988 31.5772Z" fill="#31373F"/>
</svg>
